# xmcd CD database file
#
# Track frame offsets:
#	150
#	18871
#	41185
#	57330
#	81175
#	102475
#	121605
#	139596
#	157203
#	178883
#	200801
#	223364
#	245774
#	263904
#
# Disc length: 3839 seconds
#
# Revision: 0
# Processed by: cddbd v1.5.2PL0 Copyright (c) Steve Scherf et al.
# Submitted via: CD2WAV32(JP) R3.22
#
DISCID=d80efd0e
DTITLE=EXILE - EXILE LOVE
DYEAR=2007
DGENRE=JPop
TTITLE0=01.What Is Love
TTITLE1=02.I Believe
TTITLE2=03.Beautiful
TTITLE3=04.響 ～HIBIKI～
TTITLE4=05.君がいるから
TTITLE5=06.Make Love
TTITLE6=07.SUMMER TIME LOVE
TTITLE7=08.空から落ちてくるJAZZ
TTITLE8=09.love
TTITLE9=10.sayonara
TTITLE10=11.変わらないモノ
TTITLE11=12.時の描片 ～トキノカケラ～
TTITLE12=13.Touch The Sky feat. Bach Logic
TTITLE13=14.24karats -type EX- - Sowelu, EXILE, DOBERMAN INC
EXTD=
EXTT0=
EXTT1=
EXTT2=
EXTT3=
EXTT4=
EXTT5=
EXTT6=
EXTT7=
EXTT8=
EXTT9=
EXTT10=
EXTT11=
EXTT12=
EXTT13=
PLAYORDER=
